<?xml version="1.0" standalone="no"?>
<!DOCTYPE svg PUBLIC "-//W3C//DTD SVG 20010904//EN"
 "http://www.w3.org/TR/2001/REC-SVG-20010904/DTD/svg10.dtd">
<svg version="1.0" xmlns="http://www.w3.org/2000/svg"
 width="820.000000pt" height="878.000000pt" viewBox="0 0 820.000000 878.000000"
 preserveAspectRatio="xMidYMid meet">

<g transform="translate(0.000000,878.000000) scale(0.100000,-0.100000)"
fill="#000000" stroke="none">
<path d="M3138 7920 c-127 -15 -239 -99 -297 -220 l-26 -55 -5 -370 c-5 -399
-5 -399 -59 -427 -21 -10 -212 -13 -976 -15 l-950 -3 -5 -170 c-4 -136 -2
-171 8 -175 8 -3 123 -5 256 -5 144 0 255 -4 273 -10 39 -14 51 -40 57 -120 2
-36 7 -77 11 -91 4 -16 2 -30 -4 -33 -6 -4 -11 -13 -11 -19 0 -7 4 -6 11 3 7
11 9 3 8 -30 -1 -25 1 -56 4 -70 10 -43 15 -132 6 -119 -13 21 -22 3 -10 -19
6 -12 11 -31 10 -44 -1 -23 -1 -23 -9 2 -7 23 -8 22 -9 -10 -1 -19 -4 -46 -8
-59 -5 -18 -3 -22 7 -16 10 6 12 3 8 -13 -4 -12 -2 -20 2 -17 5 3 8 -3 8 -12
-1 -10 2 -34 6 -53 5 -26 4 -31 -3 -20 -16 23 -14 -24 13 -300 7 -69 13 -157
26 -335 5 -77 14 -180 20 -230 5 -49 14 -153 20 -230 6 -77 13 -160 15 -185
10 -94 36 -390 45 -515 6 -71 15 -175 20 -230 10 -94 27 -293 49 -575 6 -69
15 -170 21 -225 6 -55 17 -185 26 -290 9 -104 22 -262 30 -350 7 -88 20 -239
29 -335 8 -96 24 -278 35 -405 11 -126 25 -282 30 -345 5 -63 12 -128 15 -145
4 -26 3 -25 -10 8 -13 34 -29 188 -90 887 -9 96 -22 248 -30 337 -8 88 -28
316 -45 505 -16 188 -37 415 -45 503 -8 88 -24 264 -35 390 -11 127 -24 275
-30 330 -6 55 -15 154 -20 220 -11 129 -30 339 -84 935 -9 91 -18 199 -21 240
-3 41 -8 82 -10 90 -2 8 -6 56 -10 105 -3 50 -10 111 -16 138 -6 26 -8 54 -5
62 3 8 2 15 -3 15 -4 0 -6 23 -3 51 3 29 1 50 -4 46 -5 -3 -8 9 -8 26 1 18 -4
38 -10 46 -8 11 -8 13 2 7 8 -5 12 0 12 13 0 12 -3 21 -7 21 -5 0 -8 17 -9 38
0 20 -4 60 -8 87 -12 71 -15 102 -20 168 -2 32 -10 65 -17 73 -11 11 -70 14
-302 14 l-288 1 -1 47 c-1 26 -2 149 -2 275 -1 125 -4 227 -8 227 -3 0 -7
-130 -8 -290 -1 -254 1 -290 15 -290 8 0 15 -4 15 -10 0 -6 102 -10 285 -10
221 0 285 -3 285 -12 0 -7 5 -53 10 -103 6 -49 15 -148 20 -220 10 -119 21
-250 50 -565 6 -63 17 -195 25 -292 8 -97 19 -225 24 -285 22 -231 56 -611 76
-863 8 -102 19 -225 24 -275 6 -49 13 -126 16 -170 3 -44 10 -123 15 -175 6
-52 19 -203 30 -335 11 -132 25 -287 30 -345 5 -58 17 -184 25 -280 8 -96 24
-278 35 -405 26 -283 45 -505 65 -740 28 -338 36 -369 124 -447 95 -85 -110
-78 2231 -78 2279 0 2111 -5 2205 60 46 32 90 95 105 152 8 31 28 218 50 483
5 66 17 197 25 290 14 156 31 354 70 795 8 91 24 269 35 395 11 127 25 284 30
350 6 66 17 197 25 290 28 305 45 496 65 735 11 129 25 282 30 340 6 58 17
186 26 285 8 99 22 254 30 345 8 91 21 242 29 335 35 411 55 634 61 683 l6 52
294 0 294 0 10 26 c13 34 13 514 0 494 -5 -8 -10 -109 -10 -233 l0 -217 -26
-10 c-14 -6 -140 -10 -283 -10 -201 0 -261 -3 -276 -14 -14 -10 -22 -39 -34
-127 -8 -63 -14 -141 -14 -174 1 -41 -1 -54 -7 -40 -7 17 -9 16 -10 -10 -5
-107 -17 -158 -33 -148 -7 4 -8 -16 -4 -63 3 -42 2 -61 -3 -49 -8 18 -9 18 -8
-5 1 -14 -2 -43 -6 -65 -6 -31 -5 -37 4 -25 10 12 11 12 5 -5 -12 -35 -37
-261 -70 -625 -3 -36 -12 -137 -21 -225 -8 -88 -22 -232 -29 -320 -36 -410
-56 -633 -70 -785 -8 -91 -22 -241 -30 -335 -8 -93 -18 -192 -20 -220 -3 -27
-19 -207 -36 -400 -17 -192 -37 -420 -44 -505 -8 -85 -21 -238 -29 -340 -9
-102 -18 -198 -21 -215 -3 -16 -9 -91 -15 -165 -24 -326 -45 -496 -63 -507 -7
-4 -8 0 -4 12 4 9 19 146 32 304 47 528 74 845 85 971 5 69 15 172 20 230 6
58 19 211 30 340 31 363 49 575 60 690 5 58 17 188 25 290 8 102 19 235 25
295 6 61 17 191 25 290 16 181 27 317 45 520 6 61 15 171 21 245 6 74 13 160
15 190 15 155 21 260 18 305 -1 28 2 53 9 57 8 5 8 20 -1 57 -8 34 -8 58 -2
73 8 19 9 17 4 -11 -5 -25 -3 -32 6 -26 9 5 10 25 6 67 -5 45 -4 58 4 53 8 -5
10 -1 7 11 -14 49 -18 84 -9 84 5 0 7 12 5 28 -3 18 -2 23 5 14 6 -9 9 -3 9
18 0 20 -3 26 -8 18 -5 -7 -6 41 -2 107 3 69 11 123 17 127 6 4 8 8 3 8 -10 0
18 53 38 70 8 7 25 14 38 16 12 2 40 6 61 10 23 4 37 3 33 -2 -3 -5 83 -8 209
-6 l214 3 -2 175 -3 174 -927 0 c-556 0 -928 3 -928 9 0 5 -9 7 -20 4 -11 -3
-33 0 -48 6 -56 24 -57 24 -62 426 l-5 370 -28 56 c-43 88 -98 143 -185 186
l-76 38 -945 1 c-521 1 -976 -2 -1013 -6z m1841 -349 c13 -3 34 -19 45 -34 20
-27 21 -43 24 -290 2 -144 0 -281 -3 -305 -7 -49 -39 -88 -81 -99 -35 -9
-1593 -17 -1682 -8 -50 5 -70 13 -95 35 l-32 28 0 310 c0 338 -1 332 60 358
24 11 202 13 885 13 470 -1 866 -4 879 -8z m1346 -1095 c22 -3 43 -5 47 -5 4
-1 16 -11 27 -22 32 -35 34 -107 11 -314 -12 -104 -21 -200 -21 -213 1 -20 -3
-22 -22 -17 l-22 7 23 -17 c12 -9 22 -23 22 -31 0 -17 -17 -19 -23 -1 -2 6 -3
-1 -1 -18 3 -22 1 -26 -5 -15 -14 21 -20 10 -26 -46 -3 -38 -2 -42 4 -19 9 30
9 30 11 -10 2 -39 3 -39 10 -10 6 25 8 27 15 12 4 -10 3 -28 -3 -40 -6 -12
-13 -31 -15 -42 -4 -18 -5 -18 -6 2 -1 28 -18 39 -25 16 -7 -23 -21 -165 -45
-468 -6 -66 -15 -165 -21 -220 -11 -109 -36 -381 -44 -485 -8 -94 -24 -271
-41 -460 -9 -91 -20 -214 -25 -275 -4 -60 -13 -157 -19 -215 -12 -126 -23
-252 -56 -630 -25 -288 -47 -528 -65 -720 -5 -58 -21 -240 -35 -405 -35 -415
-45 -467 -78 -414 -12 21 -10 64 18 374 18 193 40 438 49 545 9 107 21 242 26
300 5 58 17 184 25 280 8 96 20 225 25 285 6 61 29 317 51 570 21 253 46 537
54 630 9 94 20 224 25 290 6 66 12 136 15 155 3 19 10 94 15 165 5 72 17 204
25 295 16 175 32 357 65 745 18 203 24 244 41 268 11 15 15 27 8 27 -6 0 -9 6
-6 13 2 6 0 20 -5 30 -8 16 -124 17 -2231 17 -2371 -1 -2286 1 -2240 -46 16
-16 16 -17 1 -11 -10 3 -20 2 -23 -3 -4 -6 -2 -10 4 -10 23 0 35 -52 48 -200
7 -85 20 -231 28 -325 9 -93 22 -251 30 -350 8 -99 17 -202 20 -230 2 -27 7
-77 9 -110 11 -135 27 -316 36 -405 6 -52 15 -151 20 -220 6 -69 16 -199 24
-290 8 -91 20 -223 26 -295 6 -71 17 -202 25 -290 8 -88 26 -295 40 -460 13
-165 32 -372 40 -460 8 -88 24 -266 35 -395 23 -269 45 -519 61 -700 6 -69 15
-133 20 -142 12 -23 11 -38 -3 -38 -6 0 -20 -7 -29 -16 -33 -30 -33 -28 -80
506 -11 124 -26 299 -34 390 -8 91 -20 221 -25 290 -5 69 -15 168 -20 220 -6
52 -17 178 -26 280 -14 174 -24 286 -59 660 -7 85 -21 238 -29 340 -9 102 -18
201 -21 220 -3 19 -12 123 -21 230 -9 107 -22 258 -29 335 -7 77 -18 208 -24
290 -7 83 -15 157 -19 165 -4 8 -9 47 -11 85 -2 39 -6 74 -9 80 -3 5 -5 42 -3
82 1 44 -2 73 -8 73 -5 0 -12 -10 -15 -22 -3 -13 -3 5 -1 39 2 35 0 82 -3 105
-6 42 -6 42 -13 13 -4 -20 -6 -9 -6 35 0 36 2 54 5 40 2 -14 7 -29 12 -34 5
-5 5 9 0 30 -5 22 -7 49 -4 60 3 12 0 25 -6 29 -9 5 -10 1 -6 -13 4 -11 2 -23
-3 -26 -12 -8 -21 51 -25 161 -1 46 -5 86 -9 90 -12 11 -8 63 6 63 8 0 8 3 -2
9 -11 7 -16 34 -18 96 -5 119 20 157 107 167 41 5 4411 -1 4455 -6z m-25 -143
c0 -5 -7 -82 -15 -173 -31 -350 -46 -523 -65 -735 -30 -341 -39 -447 -55 -625
-8 -91 -24 -271 -35 -400 -11 -129 -27 -307 -35 -395 -8 -88 -23 -266 -35
-395 -11 -129 -24 -282 -30 -340 -5 -58 -14 -159 -20 -225 -6 -66 -17 -194
-25 -285 -8 -91 -24 -271 -35 -400 -36 -404 -49 -558 -70 -795 -11 -126 -20
-230 -20 -232 0 -2 -794 -3 -1765 -3 -1434 0 -1765 2 -1765 13 0 15 -21 268
-50 592 -11 127 -27 307 -35 400 -9 94 -31 348 -50 565 -19 217 -49 550 -65
740 -16 190 -34 392 -40 450 -5 58 -19 211 -30 340 -11 129 -27 309 -35 400
-25 282 -54 609 -90 1025 -19 220 -37 419 -40 443 l-5 42 2205 0 c1213 0 2205
-3 2205 -7z m531 -440 c-12 -20 -14 -14 -5 12 4 9 9 14 11 11 3 -2 0 -13 -6
-23z m-5394 -25 c-3 -7 -5 -2 -5 12 0 14 2 19 5 13 2 -7 2 -19 0 -25z m20 -90
c-3 -8 -6 -5 -6 6 -1 11 2 17 5 13 3 -3 4 -12 1 -19z m5363 -47 c0 -5 -7 -11
-15 -15 -9 -3 -15 0 -15 9 0 8 7 15 15 15 8 0 15 -4 15 -9z m-5356 -87 c3 -8
2 -12 -4 -9 -6 3 -10 10 -10 16 0 14 7 11 14 -7z m862 -4314 c7 -7 600 -9
1787 -8 1572 3 1777 1 1775 -12 -2 -8 -17 -22 -33 -30 -26 -13 -240 -15 -1740
-18 -1732 -2 -1797 -1 -1825 33 -24 29 10 61 36 35z"/>
<path d="M3255 7470 c-4 -6 -5 -109 -4 -230 1 -121 0 -223 -3 -226 -4 -3 -1
-20 5 -37 10 -27 13 10 17 208 l5 240 828 3 827 2 0 -240 c0 -132 3 -240 8
-240 5 0 8 455 3 518 -1 16 -1676 18 -1686 2z"/>
<path d="M1780 6419 c0 -5 5 -7 10 -4 6 3 10 8 10 11 0 2 -4 4 -10 4 -5 0 -10
-5 -10 -11z"/>
<path d="M1801 6034 c0 -11 3 -14 6 -6 3 7 2 16 -1 19 -3 4 -6 -2 -5 -13z"/>
<path d="M6362 5975 c0 -16 2 -22 5 -12 2 9 2 23 0 30 -3 6 -5 -1 -5 -18z"/>
<path d="M6341 5934 c0 -11 3 -14 6 -6 3 7 2 16 -1 19 -3 4 -6 -2 -5 -13z"/>
<path d="M3257 5543 c-4 -3 -7 -12 -7 -19 0 -7 -10 -24 -22 -36 -18 -18 -30
-23 -52 -18 -44 8 -324 -1 -301 -10 12 -5 0 -6 -32 -4 -29 1 -61 8 -72 14 -20
10 -20 9 -9 -14 6 -14 14 -24 17 -22 3 3 8 -73 9 -167 2 -95 7 -262 13 -372 5
-110 16 -418 24 -685 8 -267 19 -586 25 -710 5 -124 15 -380 21 -570 7 -190
15 -415 18 -500 4 -85 6 -157 4 -159 -1 -2 -9 4 -17 12 -9 8 -20 17 -24 19 -5
1 -14 147 -21 323 -6 176 -18 493 -26 705 -7 212 -19 511 -25 665 -22 593 -40
1056 -45 1210 -3 88 -8 184 -12 214 -4 39 -3 52 6 47 8 -5 10 1 6 23 -4 22 -1
31 12 35 11 3 7 4 -7 3 l-25 -2 3 -180 c1 -99 9 -362 17 -585 8 -223 22 -592
30 -820 8 -228 22 -602 30 -830 8 -228 20 -536 25 -684 7 -196 13 -272 22
-278 7 -5 49 -6 93 -4 44 3 169 9 278 12 108 4 199 9 201 13 2 3 0 107 -5 231
-5 124 -15 416 -24 650 -9 234 -20 540 -25 680 -6 140 -17 449 -25 685 -33
907 -42 1111 -49 1123 -8 13 -19 15 -29 5z m26 -349 c4 -174 11 -414 17 -533
5 -119 14 -367 20 -551 6 -184 17 -508 25 -720 34 -930 38 -1081 29 -1090 -5
-4 -20 -10 -34 -12 -19 -2 -24 1 -22 14 1 9 -7 265 -18 570 -41 1089 -49 1307
-59 1598 -6 162 -15 381 -21 485 -6 105 -11 241 -12 303 0 62 -4 115 -8 117
-5 3 -3 23 2 46 8 28 18 43 34 50 13 4 24 15 24 24 0 8 4 15 8 15 5 0 12 -142
15 -316z m-326 250 c-3 -3 -12 -4 -19 -1 -8 3 -5 6 6 6 11 1 17 -2 13 -5z"/>
<path d="M4348 5515 c-5 -26 1 -32 18 -15 6 6 8 -106 7 -303 -2 -172 -4 -891
-5 -1599 -2 -842 -6 -1290 -13 -1296 -5 -6 -20 -13 -32 -17 l-23 -6 0 1585 c0
1576 0 1585 20 1591 11 3 20 10 20 14 0 17 -14 19 -35 5 -12 -8 -31 -12 -41
-8 -16 5 -16 4 -4 -5 8 -6 10 -11 5 -11 -6 0 -16 5 -21 10 -16 16 -350 9 -347
-7 2 -7 -4 -10 -12 -7 -8 4 -12 10 -9 15 3 5 0 9 -5 9 -14 0 -14 -17 -1 -25 7
-4 10 -545 10 -1590 l0 -1583 -30 14 -30 15 0 1595 c0 1115 3 1594 11 1594 5
0 8 -4 4 -9 -3 -5 -1 -12 4 -15 10 -7 9 6 -3 42 -4 12 -12 22 -17 22 -5 0 -9
-649 -9 -1684 0 -1526 1 -1684 16 -1690 9 -3 139 -6 290 -6 l274 0 0 1679 c0
1514 -2 1681 -16 1695 -20 21 -21 20 -26 -9z"/>
<path d="M4906 5478 c-3 -35 -10 -207 -16 -383 -6 -176 -17 -493 -25 -705 -8
-212 -21 -574 -30 -805 -8 -231 -22 -595 -30 -810 -18 -486 -20 -594 -9 -605
12 -10 556 -32 566 -22 4 4 12 147 18 317 5 171 14 411 20 535 5 124 12 320
15 435 3 116 8 248 10 295 3 47 9 213 15 370 16 466 29 819 40 1099 6 145 9
266 6 268 -12 12 -26 -83 -26 -177 0 -58 -4 -159 -10 -225 -5 -66 -15 -255
-20 -420 -6 -165 -17 -464 -25 -665 -8 -201 -21 -547 -30 -770 -36 -938 -33
-892 -60 -919 -13 -14 -26 -23 -28 -20 -2 2 0 76 5 164 8 169 36 968 68 1890
6 165 14 424 20 575 14 412 14 475 5 490 -5 9 -4 11 3 6 8 -5 12 0 12 13 0 33
11 51 32 51 14 0 18 5 14 15 -3 8 -2 14 2 13 17 -3 40 15 35 28 -9 23 -27 16
-41 -15 -15 -34 -54 -50 -97 -40 -16 4 -105 7 -196 8 -147 1 -168 3 -187 20
-12 10 -22 26 -22 35 0 9 -6 16 -14 16 -10 0 -16 -18 -20 -62z m66 -22 c8 -12
4 -194 -12 -546 -6 -124 -15 -346 -20 -495 -9 -257 -17 -480 -40 -1035 -6
-135 -15 -375 -20 -535 -6 -159 -13 -348 -15 -420 -3 -71 -5 -133 -5 -138 0
-4 -13 -1 -30 8 -27 14 -29 19 -25 58 3 23 9 186 15 362 10 325 32 931 50
1395 5 140 14 388 20 550 5 162 15 413 21 556 12 257 12 261 33 256 12 -3 24
-10 28 -16z m305 -2 c-3 -3 -12 -4 -19 -1 -8 3 -5 6 6 6 11 1 17 -2 13 -5z"/>
<path d="M5370 7886 c0 -4 10 -21 22 -39 13 -18 24 -34 25 -36 2 -2 5 -2 8 1
3 3 -8 22 -25 43 -16 21 -30 35 -30 31z"/>
<path d="M2784 7833 c-12 -16 -26 -39 -33 -53 l-12 -25 19 24 c23 28 55 81 49
81 -2 0 -12 -12 -23 -27z"/>
<path d="M5430 7791 c0 -5 5 -13 10 -16 6 -3 10 -2 10 4 0 5 -4 13 -10 16 -5
3 -10 2 -10 -4z"/>
<path d="M5496 7569 c-10 -51 -7 -482 4 -499 6 -10 10 78 10 258 0 149 -2 272
-4 272 -2 0 -6 -14 -10 -31z"/>
<path d="M2694 7300 c0 -124 2 -174 3 -112 2 61 2 163 0 225 -1 61 -3 11 -3
-113z"/>
<path d="M2690 6988 c0 -21 5 -38 10 -38 13 0 13 40 0 60 -7 11 -10 5 -10 -22z"/>
<path d="M5486 6998 c3 -4 9 -8 15 -8 5 0 9 4 9 8 0 5 -7 9 -15 9 -8 0 -12 -4
-9 -9z"/>
<path d="M7460 6936 c0 -2 7 -6 15 -10 8 -3 15 -1 15 4 0 6 -7 10 -15 10 -8 0
-15 -2 -15 -4z"/>
<path d="M1411 6244 c0 -11 3 -14 6 -6 3 7 2 16 -1 19 -3 4 -6 -2 -5 -13z"/>
<path d="M6812 6030 c0 -19 2 -27 5 -17 2 9 2 25 0 35 -3 9 -5 1 -5 -18z"/>
</g>
</svg>
